<?xml version="1.0" standalone="no"?>
<!DOCTYPE svg PUBLIC "-//W3C//DTD SVG 20010904//EN"
 "http://www.w3.org/TR/2001/REC-SVG-20010904/DTD/svg10.dtd">
<svg version="1.0" xmlns="http://www.w3.org/2000/svg"
 width="239.000000pt" height="239.000000pt" viewBox="0 0 239.000000 239.000000"
 preserveAspectRatio="xMidYMid meet">
<metadata>
Created by potrace 1.14, written by Peter Selinger 2001-2017
</metadata>
<g transform="translate(0.000000,239.000000) scale(0.100000,-0.100000)"
fill="#000000" stroke="none">
<path d="M1008 2334 c-674 -104 -1112 -795 -922 -1451 168 -581 761 -933 1352
-804 439 96 771 430 879 883 21 90 24 362 5 453 -133 620 -698 1015 -1314 919z
m166 -73 c3 -5 -1 -28 -9 -51 -17 -49 -20 -126 -5 -135 18 -11 78 42 85 75 4
17 13 30 22 30 11 0 13 -7 7 -32 -14 -61 -11 -73 16 -72 14 1 36 5 50 10 22 7
23 6 12 -8 -30 -38 -112 -40 -112 -3 0 12 -8 10 -38 -10 -67 -44 -90 -15 -79
101 8 83 32 127 51 95z m246 -50 c-12 -24 -39 -45 -47 -38 -3 4 0 13 7 22 7 8
10 25 6 38 -8 34 6 42 26 17 13 -16 15 -27 8 -39z m-340 34 c0 -14 -61 -37
-136 -51 -27 -5 -34 -11 -34 -30 0 -33 9 -35 70 -14 30 10 58 16 62 14 19 -12
4 -24 -54 -41 -62 -18 -77 -34 -64 -68 4 -12 18 -10 77 10 39 14 76 22 81 19
16 -10 -4 -22 -77 -47 -39 -13 -78 -27 -87 -31 -19 -9 -18 -11 -37 114 -13 83
-5 99 48 101 14 0 51 8 81 19 70 23 70 23 70 5z m235 -6 c0 -7 -8 -15 -17 -17
-18 -3 -25 18 -11 32 10 10 28 1 28 -15z m-575 -165 c-15 -43 -1 -65 39 -60
15 1 38 -1 51 -6 20 -7 22 -11 10 -18 -18 -12 -130 -13 -147 -2 -16 10 -1 69
30 126 19 33 22 36 25 17 2 -12 -2 -37 -8 -57z m780 67 c0 -5 -10 -15 -22 -24
-22 -14 -22 -15 -5 -34 20 -23 22 -54 5 -71 -14 -14 -68 -16 -68 -2 0 6 9 10
20 10 28 0 35 24 16 52 -21 29 -20 55 2 67 21 13 52 14 52 2z m200 -72 c32
-76 26 -93 -35 -97 -27 -2 -66 0 -85 3 l-35 7 25 13 c14 8 39 12 55 9 42 -6
64 27 41 61 -9 14 -16 36 -16 51 0 38 22 17 50 -47z m-1144 -131 c-6 -31 6
-43 49 -44 82 -3 83 -3 45 -23 -19 -10 -59 -22 -87 -26 l-53 -7 0 51 c0 28 8
70 17 93 l17 42 8 -29 c5 -17 6 -42 4 -57z m1309 7 c9 -30 15 -67 13 -82 -3
-27 -5 -28 -53 -25 -51 4 -123 28 -112 38 3 4 26 6 50 6 32 -1 50 4 61 17 10
11 13 21 9 24 -11 7 -4 77 8 77 5 0 16 -25 24 -55z m-460 -60 c303 -101 498
-369 498 -685 0 -327 -217 -611 -533 -697 -89 -24 -281 -24 -370 0 -248 68
-446 267 -511 514 -28 105 -28 259 0 365 69 265 282 467 551 524 102 21 268
12 365 -21z m-990 -115 c-7 -24 29 -42 60 -30 15 6 36 10 47 10 17 0 19 -2 7
-16 -18 -22 -80 -52 -115 -56 -26 -3 -29 0 -37 39 -5 23 -6 63 -2 90 l7 48 18
-35 c11 -19 17 -42 15 -50z m1594 -19 c-2 -44 -7 -82 -11 -86 -11 -11 -100 23
-133 50 l-30 24 28 1 c16 0 37 -5 48 -10 25 -14 59 4 59 30 0 25 21 70 33 70
5 0 8 -34 6 -79z m-1699 -173 c0 -24 32 -31 66 -13 16 8 38 15 48 15 17 0 16
-4 -10 -31 -33 -35 -100 -73 -114 -64 -13 8 -40 102 -40 139 l1 31 24 -30 c14
-16 25 -38 25 -47z m1795 -59 c-9 -27 -22 -49 -29 -49 -20 0 -105 60 -117 82
-10 19 -8 19 23 13 18 -4 36 -12 39 -17 13 -21 48 5 71 50 l23 47 3 -38 c2
-21 -4 -60 -13 -88z m-1825 -169 c7 0 25 11 42 25 54 46 64 29 19 -32 -39 -53
-70 -76 -87 -62 -19 16 -64 110 -64 133 1 18 7 14 39 -21 21 -24 44 -43 51
-43z m1914 43 c-8 -32 -36 -89 -59 -117 -15 -19 -16 -19 -56 20 -38 37 -77 94
-63 94 12 0 64 -34 64 -42 0 -16 51 -8 57 9 6 14 51 62 61 63 1 0 -1 -12 -4
-27z m-1856 -224 c-13 -37 -57 -109 -67 -109 -17 0 -56 37 -82 78 -38 59 -37
66 6 41 19 -12 35 -25 35 -30 0 -5 14 -9 30 -9 19 0 30 5 30 14 0 14 49 60 57
53 2 -2 -2 -19 -9 -38z m1790 -39 c12 0 25 6 29 14 10 16 53 40 60 33 8 -9
-25 -61 -61 -96 -42 -40 -53 -35 -92 41 -36 70 -31 92 10 46 18 -21 42 -38 54
-38z m-1768 -188 c-6 -27 -19 -60 -29 -75 l-17 -27 -46 30 c-43 29 -85 76 -75
86 7 7 67 -17 67 -27 0 -17 50 -9 57 9 11 31 47 76 51 63 2 -6 -1 -33 -8 -59z
m1710 -18 c0 -9 11 -14 30 -14 17 0 30 4 30 9 0 11 61 34 68 26 10 -10 -98
-105 -118 -105 -24 0 -50 52 -57 115 l-4 40 25 -28 c14 -15 26 -35 26 -43z
m-1586 -214 c15 -28 25 -57 22 -65 -11 -31 -84 -8 -138 43 l-28 26 -23 -22
c-29 -27 -37 -28 -37 -3 0 23 61 78 95 87 26 6 32 18 15 29 -6 4 -7 11 -3 18
9 14 61 -46 97 -113z m1406 35 c0 -25 -4 -45 -10 -45 -5 0 -10 20 -10 45 0 25
5 45 10 45 6 0 10 -20 10 -45z m123 -17 c15 -57 -28 -148 -68 -148 -26 0 -55
41 -55 79 0 33 22 72 39 69 12 -3 16 -17 16 -61 0 -31 3 -57 7 -57 17 0 41 54
42 95 1 48 10 59 19 23z m-164 -93 c3 -17 1 -18 -13 -6 -25 21 -31 -10 -10
-50 l17 -34 15 23 c22 33 36 27 16 -8 -17 -28 -17 -31 -1 -65 9 -20 17 -49 17
-65 0 -31 -34 -75 -50 -65 -5 3 0 15 11 26 20 20 20 28 -3 89 -10 25 -10 25
-30 -15 -28 -54 -57 -85 -82 -85 -12 0 -33 -15 -49 -35 -30 -38 -70 -47 -81
-18 -6 14 -10 13 -34 -10 -79 -76 -222 -90 -222 -22 0 47 123 155 177 155 25
0 32 -27 11 -48 -19 -19 -30 -14 -23 9 6 19 5 20 -17 8 -69 -37 -124 -103
-111 -136 8 -19 61 -16 109 7 23 12 76 57 117 100 41 44 80 80 86 80 7 0 17
-13 22 -30 13 -37 31 -38 58 -4 33 42 42 89 25 129 -8 19 -14 43 -14 53 0 41
51 56 59 17z m-1291 -91 c26 -18 28 -41 5 -67 -17 -18 -17 -20 6 -38 29 -23
64 -24 97 -3 20 13 28 14 37 5 9 -10 8 -14 -5 -22 -19 -11 -23 -36 -9 -58 12
-19 62 -6 55 14 -5 13 -2 14 22 5 21 -8 29 -8 35 2 19 33 38 52 45 45 4 -4 1
-19 -6 -33 -12 -22 -12 -27 0 -34 15 -10 50 -14 83 -10 14 1 16 -4 11 -25 l-7
-27 32 17 c34 17 78 17 73 0 -2 -5 -10 -9 -18 -7 -8 2 -30 -5 -49 -14 -26 -12
-35 -23 -35 -40 0 -15 -6 -24 -15 -24 -11 0 -15 12 -15 50 0 45 -2 50 -22 50
-13 0 -32 3 -44 6 -15 4 -23 -1 -32 -21 -7 -14 -12 -35 -12 -45 0 -11 -5 -20
-10 -20 -17 0 -24 31 -13 60 l10 26 -86 0 c-50 -1 -87 3 -88 9 -1 6 12 9 28 7
26 -2 30 1 27 20 -2 17 -11 24 -33 26 -48 5 -82 22 -93 48 -8 15 -20 24 -35
24 -50 0 -84 49 -55 78 17 17 89 15 116 -4z m638 -268 c-12 -96 -18 -116 -33
-116 -11 0 -13 9 -7 46 6 45 6 46 -15 34 -28 -15 -71 -9 -84 11 -11 18 12 74
28 68 6 -2 8 -8 6 -14 -16 -41 -13 -55 11 -55 34 0 68 27 68 54 0 26 9 38 23
29 5 -3 7 -27 3 -57z"/>
<path d="M977 1386 c3 -15 1 -26 -6 -26 -6 0 -11 6 -11 14 0 10 -9 14 -27 12
-23 -3 -29 -8 -31 -35 -2 -18 -10 -35 -17 -37 -12 -5 -25 -41 -27 -71 0 -5 -6
-17 -14 -27 -8 -12 -10 -25 -5 -35 5 -9 12 -38 16 -64 4 -26 16 -58 27 -70 18
-21 18 -21 7 -1 -12 22 -7 54 10 54 5 0 12 -10 16 -22 6 -20 8 -17 20 22 l12
45 5 -40 5 -40 1 38 c1 20 7 37 12 37 6 0 11 -17 11 -37 l2 -38 7 40 c5 30 8
34 10 15 2 -18 4 -20 7 -8 7 27 33 -3 33 -39 0 -20 3 -24 9 -14 7 11 9 11 14
0 4 -10 6 -10 6 -1 1 6 6 12 11 12 7 0 7 -7 0 -22 -11 -22 -10 -22 4 -4 9 11
16 28 16 38 0 28 13 21 30 -14 22 -47 70 -70 154 -76 86 -5 176 17 212 53 31
31 31 75 1 103 -33 31 -41 27 -16 -7 48 -65 -25 -114 -171 -115 -95 -1 -131
12 -164 57 l-21 28 22 40 c20 37 19 51 -3 30 -5 -6 -10 3 -12 25 -3 46 -36
110 -65 125 -12 6 -38 27 -58 46 -36 34 -36 34 -32 9z m-47 -257 c0 -4 -7 -6
-15 -3 -8 4 -15 10 -15 15 0 4 7 6 15 3 8 -4 15 -10 15 -15z m117 -1 c-3 -8
-6 -5 -6 6 -1 11 2 17 5 13 3 -3 4 -12 1 -19z"/>
<path d="M1270 1386 c0 -9 8 -12 25 -8 37 7 41 22 6 22 -20 0 -31 -5 -31 -14z"/>
<path d="M1366 1391 c-8 -12 -4 -14 59 -27 50 -11 60 -40 18 -51 -46 -13 -235
-9 -261 6 -29 15 -16 36 29 46 33 7 39 25 9 25 -38 0 -78 -28 -85 -59 -9 -41
11 -106 44 -144 16 -18 31 -43 33 -57 5 -35 43 -51 110 -47 66 4 102 29 112
77 4 21 18 36 53 56 69 39 93 64 93 95 0 34 -23 53 -55 45 -17 -4 -34 0 -53
13 -33 24 -97 37 -106 22z m184 -80 c0 -11 -10 -27 -22 -36 -21 -14 -23 -14
-26 0 -4 17 24 55 40 55 4 0 8 -9 8 -19z m-230 -31 c60 0 120 4 134 10 66 25
2 -91 -68 -124 -72 -34 -159 -11 -203 54 -13 18 -23 43 -23 56 0 21 3 22 26
14 14 -6 74 -10 134 -10z m83 -152 c-40 -40 -183 -33 -183 9 0 11 5 13 18 7
34 -16 119 -16 148 -1 37 19 44 13 17 -15z"/>
<path d="M1580 1166 c36 -12 84 -32 106 -44 41 -21 94 -74 94 -94 0 -5 -15
-25 -32 -42 -155 -155 -906 -150 -1084 6 -20 18 -34 39 -34 53 0 30 44 73 105
101 28 13 43 24 35 24 -29 0 -117 -48 -138 -75 -41 -51 -24 -105 47 -149 214
-135 781 -152 1021 -31 93 47 124 106 85 163 -29 41 -139 91 -235 106 -22 4
-11 -3 30 -18z"/>
<path d="M1038 1023 c7 -3 16 -2 19 1 4 3 -2 6 -13 5 -11 0 -14 -3 -6 -6z"/>
<path d="M411 747 c-13 -6 -24 -16 -24 -22 -1 -17 79 -67 102 -63 22 3 21 4
-8 51 -33 51 -35 52 -70 34z"/>
<path d="M1936 685 c-3 -8 -1 -25 4 -37 8 -20 9 -18 9 15 1 39 -3 47 -13 22z"/>
<path d="M1691 427 c-19 -24 -41 -86 -32 -91 13 -8 61 51 61 74 0 25 -15 33
-29 17z"/>
<path d="M493 533 c-7 -2 -13 -11 -13 -18 0 -27 77 -35 87 -9 10 26 -36 43
-74 27z"/>
</g>
</svg>
